# xmcd CD database file
#
# Track frame offsets:
#	183
#	9213
#	37083
#	47120
#	62075
#	78455
#	89133
#	115503
#	129763
#	139933
#	151310
#	174373
#	188635
#	208325
#	221340
#	245433
#
# Disc length: 3463 seconds
#
# Revision: 0
# Processed by: cddbd v1.5.2PL0 Copyright (c) Steve Scherf et al.
# Submitted via: CDex 1.70beta2
#
DISCID=d70d8510
DTITLE=Stan Kenton - Stan Kenton
DYEAR=1989
DGENRE=Jazz
TTITLE0=Eager beaver
TTITLE1=Fire and ice
TTITLE2=Darn that dream
TTITLE3=I concentrate on you
TTITLE4=Misty
TTITLE5=Machito
TTITLE6=Stairway to the stars
TTITLE7=Southern scandal
TTITLE8=Opus in pastels
TTITLE9=hey, there
TTITLE10=I get along without you very well
TTITLE11=Opus in chartreuse
TTITLE12=Time after time
TTITLE13=Artistry in bolero
TTITLE14=Body and soul
TTITLE15=Artistry in rhythm
EXTD=YEAR: 1989
EXTT0=
EXTT1=
EXTT2=
EXTT3=
EXTT4=
EXTT5=
EXTT6=
EXTT7=
EXTT8=
EXTT9=
EXTT10=
EXTT11=
EXTT12=
EXTT13=
EXTT14=
EXTT15=
PLAYORDER=
